# xmcd CD database file
#
# Track frame offsets:
#	150
#	17167
#	34042
#	45087
#	59020
#	74035
#	91667
#	104300
#	118660
#	133232
#	147042
#	165602
#	182345
#	198472
#	216465
#	231425
#	243562
#	256312
#	271887
#	285530
#	298982
#	310190
#
# Disc length: 4316 seconds
#
# Revision: 0
# Processed by: cddbd v1.5.2PL0 Copyright (c) Steve Scherf et al.
# Submitted via: CDex 1.70beta2
#
DISCID=5010da16
DTITLE=Jones Classic Country - Jones Classic Country CCC-619
DYEAR=0000
DGENRE=Country
TTITLE0=Alabama/Touch Me When We're Dancing
TTITLE1=John Anderson/I'm Just an Old Chunk Of Coal
TTITLE2=Moe Bandy and Joe Stampley/Hey Joe (Hey Moe)
TTITLE3=Bellamy Brothers/Do You Love As Good As You Look
TTITLE4=Bellamy Brothers/Let Your Love Flow
TTITLE5=Bellamy Brothers and The Forrester Sisters/Too Much Is Not Enough
TTITLE6=Glen Campbell/By The Time I Get To Phoenix
TTITLE7=Glen Campbell/Country Boy (You've Got Your Feet In L A)
TTITLE8=Glen Campbell/Rhinestone Cowboy
TTITLE9=Glen Campbell/Southern Nights
TTITLE10=Johnny Cash/One Piece At A Time
TTITLE11=John Conlee/In My Eyes
TTITLE12=John Conlee/Miss Emily's Picture
TTITLE13=Earl Thomas Conley/Angel In Disguise
TTITLE14=Earl Thomas Conley/Fire And Smoke
TTITLE15=Dave and Sugar/I'm Knee Deep In Loving You
TTITLE16=Dave and Sugar/Queen Of The Silver Dollar
TTITLE17=John Denver/Thank God I'm A Country Boy (live)
TTITLE18=Kenny Rogers and The First Edition/Ruby, Don't Take Your Love To Town
TTITLE19=Larry Gatlin and The Gatlin Brothers/Lady Takes The Cowboy Everytime
TTITLE20=Mickey Gilley/Bring It On Home To Me
TTITLE21=Mickey Gilley/True Love Ways
EXTD=YEAR: 0000
EXTT0=
EXTT1=
EXTT2=
EXTT3=
EXTT4=
EXTT5=
EXTT6=
EXTT7=
EXTT8=
EXTT9=
EXTT10=
EXTT11=
EXTT12=
EXTT13=
EXTT14=
EXTT15=
EXTT16=
EXTT17=
EXTT18=
EXTT19=
EXTT20=
EXTT21=
PLAYORDER=
